<svg id="visual" viewBox="0 0 900 600" width="900" height="600" xmlns="http://www.w3.org/2000/svg" xmlns:xlink="http://www.w3.org/1999/xlink" version="1.1"><path d="M0 157L13.7 159C27.3 161 54.7 165 82 173C109.3 181 136.7 193 163.8 190C191 187 218 169 245.2 165C272.3 161 299.7 171 327 161C354.3 151 381.7 121 409 117C436.3 113 463.7 135 491 150C518.3 165 545.7 173 573 189C600.3 205 627.7 229 654.8 221C682 213 709 173 736.2 167C763.3 161 790.7 189 818 199C845.3 209 872.7 201 886.3 197L900 193L900 0L886.3 0C872.7 0 845.3 0 818 0C790.7 0 763.3 0 736.2 0C709 0 682 0 654.8 0C627.7 0 600.3 0 573 0C545.7 0 518.3 0 491 0C463.7 0 436.3 0 409 0C381.7 0 354.3 0 327 0C299.7 0 272.3 0 245.2 0C218 0 191 0 163.8 0C136.7 0 109.3 0 82 0C54.7 0 27.3 0 13.7 0L0 0Z" fill="#6198ff"></path><path d="M0 241L13.7 246C27.3 251 54.7 261 82 268C109.3 275 136.7 279 163.8 273C191 267 218 251 245.2 248C272.3 245 299.7 255 327 244C354.3 233 381.7 201 409 197C436.3 193 463.7 217 491 231C518.3 245 545.7 249 573 266C600.3 283 627.7 313 654.8 305C682 297 709 251 736.2 247C763.3 243 790.7 281 818 291C845.3 301 872.7 283 886.3 274L900 265L900 191L886.3 195C872.7 199 845.3 207 818 197C790.7 187 763.3 159 736.2 165C709 171 682 211 654.8 219C627.7 227 600.3 203 573 187C545.7 171 518.3 163 491 148C463.7 133 436.3 111 409 115C381.7 119 354.3 149 327 159C299.7 169 272.3 159 245.2 163C218 167 191 185 163.8 188C136.7 191 109.3 179 82 171C54.7 163 27.3 159 13.7 157L0 155Z" fill="#3c80ff"></path><path d="M0 355L13.7 353C27.3 351 54.7 347 82 351C109.3 355 136.7 367 163.8 367C191 367 218 355 245.2 350C272.3 345 299.7 347 327 332C354.3 317 381.7 285 409 283C436.3 281 463.7 309 491 323C518.3 337 545.7 337 573 350C600.3 363 627.7 389 654.8 387C682 385 709 355 736.2 345C763.3 335 790.7 345 818 344C845.3 343 872.7 331 886.3 325L900 319L900 263L886.3 272C872.7 281 845.3 299 818 289C790.7 279 763.3 241 736.2 245C709 249 682 295 654.8 303C627.7 311 600.3 281 573 264C545.7 247 518.3 243 491 229C463.7 215 436.3 191 409 195C381.7 199 354.3 231 327 242C299.7 253 272.3 243 245.2 246C218 249 191 265 163.8 271C136.7 277 109.3 273 82 266C54.7 259 27.3 249 13.7 244L0 239Z" fill="#0066ff"></path><path d="M0 541L13.7 536C27.3 531 54.7 521 82 516C109.3 511 136.7 511 163.8 517C191 523 218 535 245.2 534C272.3 533 299.7 519 327 509C354.3 499 381.7 493 409 493C436.3 493 463.7 499 491 495C518.3 491 545.7 477 573 480C600.3 483 627.7 503 654.8 507C682 511 709 499 736.2 502C763.3 505 790.7 523 818 524C845.3 525 872.7 509 886.3 501L900 493L900 317L886.3 323C872.7 329 845.3 341 818 342C790.7 343 763.3 333 736.2 343C709 353 682 383 654.8 385C627.7 387 600.3 361 573 348C545.7 335 518.3 335 491 321C463.7 307 436.3 279 409 281C381.7 283 354.3 315 327 330C299.7 345 272.3 343 245.2 348C218 353 191 365 163.8 365C136.7 365 109.3 353 82 349C54.7 345 27.3 349 13.7 351L0 353Z" fill="#0059dd"></path><path d="M0 601L13.7 601C27.3 601 54.7 601 82 601C109.3 601 136.7 601 163.8 601C191 601 218 601 245.2 601C272.3 601 299.7 601 327 601C354.3 601 381.7 601 409 601C436.3 601 463.7 601 491 601C518.3 601 545.7 601 573 601C600.3 601 627.7 601 654.8 601C682 601 709 601 736.2 601C763.3 601 790.7 601 818 601C845.3 601 872.7 601 886.3 601L900 601L900 491L886.3 499C872.7 507 845.3 523 818 522C790.7 521 763.3 503 736.2 500C709 497 682 509 654.8 505C627.7 501 600.3 481 573 478C545.7 475 518.3 489 491 493C463.7 497 436.3 491 409 491C381.7 491 354.3 497 327 507C299.7 517 272.3 531 245.2 532C218 533 191 521 163.8 515C136.7 509 109.3 509 82 514C54.7 519 27.3 529 13.7 534L0 539Z" fill="#004cbb"></path></svg>